<mxfile host="app.diagrams.net" modified="2020-05-27T20:05:20.303Z" agent="5.0 (Macintosh; Intel Mac OS X 10_12_6) AppleWebKit/537.36 (KHTML, like Gecko) Chrome/81.0.4044.138 Safari/537.36" etag="CQc2hty6MdnMX6eYfaWz" version="13.0.8" type="github">
  <diagram name="Page-1" id="58cdce13-f638-feb5-8d6f-7d28b1aa9fa0">
    <mxGraphModel dx="946" dy="646" grid="1" gridSize="10" guides="1" tooltips="1" connect="1" arrows="1" fold="1" page="1" pageScale="1" pageWidth="1100" pageHeight="850" background="#ffffff" math="0" shadow="0">
      <root>
        <mxCell id="0" />
        <mxCell id="1" parent="0" />
        <mxCell id="Ri-WkUoFcTNMRgU-D6om-1" value="Secretary" style="shape=umlActor;verticalLabelPosition=bottom;labelBackgroundColor=#ffffff;verticalAlign=top;html=1;outlineConnect=0;fillColor=#fff2cc;strokeColor=#d6b656;" parent="1" vertex="1">
          <mxGeometry x="60" y="220" width="80" height="140" as="geometry" />
        </mxCell>
        <mxCell id="Ri-WkUoFcTNMRgU-D6om-4" value="" style="endArrow=classic;html=1;" parent="1" edge="1">
          <mxGeometry width="50" height="50" relative="1" as="geometry">
            <mxPoint x="170" y="251.67000000000002" as="sourcePoint" />
            <mxPoint x="400" y="90" as="targetPoint" />
          </mxGeometry>
        </mxCell>
        <mxCell id="Ri-WkUoFcTNMRgU-D6om-7" value="" style="endArrow=classic;html=1;" parent="1" edge="1">
          <mxGeometry width="50" height="50" relative="1" as="geometry">
            <mxPoint x="170" y="270" as="sourcePoint" />
            <mxPoint x="450" y="170" as="targetPoint" />
          </mxGeometry>
        </mxCell>
        <mxCell id="Ri-WkUoFcTNMRgU-D6om-10" value="" style="endArrow=classic;html=1;" parent="1" edge="1">
          <mxGeometry width="50" height="50" relative="1" as="geometry">
            <mxPoint x="170" y="290" as="sourcePoint" />
            <mxPoint x="470" y="250" as="targetPoint" />
          </mxGeometry>
        </mxCell>
        <mxCell id="Ri-WkUoFcTNMRgU-D6om-12" value="" style="endArrow=classic;html=1;" parent="1" edge="1">
          <mxGeometry width="50" height="50" relative="1" as="geometry">
            <mxPoint x="170" y="320" as="sourcePoint" />
            <mxPoint x="480" y="380" as="targetPoint" />
          </mxGeometry>
        </mxCell>
        <mxCell id="Ri-WkUoFcTNMRgU-D6om-13" value="" style="endArrow=classic;html=1;" parent="1" target="Ri-WkUoFcTNMRgU-D6om-22" edge="1">
          <mxGeometry width="50" height="50" relative="1" as="geometry">
            <mxPoint x="170" y="340" as="sourcePoint" />
            <mxPoint x="440" y="460" as="targetPoint" />
          </mxGeometry>
        </mxCell>
        <mxCell id="Ri-WkUoFcTNMRgU-D6om-14" value="" style="endArrow=classic;html=1;" parent="1" edge="1">
          <mxGeometry width="50" height="50" relative="1" as="geometry">
            <mxPoint x="170" y="315" as="sourcePoint" />
            <mxPoint x="480" y="310" as="targetPoint" />
          </mxGeometry>
        </mxCell>
        <mxCell id="Ri-WkUoFcTNMRgU-D6om-15" value="" style="endArrow=classic;html=1;" parent="1" target="Ri-WkUoFcTNMRgU-D6om-16" edge="1">
          <mxGeometry width="50" height="50" relative="1" as="geometry">
            <mxPoint x="170" y="350" as="sourcePoint" />
            <mxPoint x="430" y="500" as="targetPoint" />
          </mxGeometry>
        </mxCell>
        <mxCell id="Ri-WkUoFcTNMRgU-D6om-16" value="" style="ellipse;whiteSpace=wrap;html=1;fillColor=#fff2cc;strokeColor=#d6b656;" parent="1" vertex="1">
          <mxGeometry x="330" y="570" width="210" height="80" as="geometry" />
        </mxCell>
        <mxCell id="Ri-WkUoFcTNMRgU-D6om-17" value="" style="ellipse;whiteSpace=wrap;html=1;fillColor=#fff2cc;strokeColor=#d6b656;" parent="1" vertex="1">
          <mxGeometry x="470" y="200" width="180" height="80" as="geometry" />
        </mxCell>
        <mxCell id="Ri-WkUoFcTNMRgU-D6om-18" value="" style="ellipse;whiteSpace=wrap;html=1;fillColor=#fff2cc;strokeColor=#d6b656;" parent="1" vertex="1">
          <mxGeometry x="440" y="110" width="200" height="80" as="geometry" />
        </mxCell>
        <mxCell id="Ri-WkUoFcTNMRgU-D6om-19" value="" style="ellipse;whiteSpace=wrap;html=1;fillColor=#fff2cc;strokeColor=#d6b656;" parent="1" vertex="1">
          <mxGeometry x="390" y="30" width="180" height="80" as="geometry" />
        </mxCell>
        <mxCell id="Ri-WkUoFcTNMRgU-D6om-20" value="" style="ellipse;whiteSpace=wrap;html=1;fillColor=#fff2cc;strokeColor=#d6b656;" parent="1" vertex="1">
          <mxGeometry x="470" y="290" width="200" height="70" as="geometry" />
        </mxCell>
        <mxCell id="Ri-WkUoFcTNMRgU-D6om-21" value="" style="ellipse;whiteSpace=wrap;html=1;fillColor=#fff2cc;strokeColor=#d6b656;" parent="1" vertex="1">
          <mxGeometry x="460" y="370" width="220" height="80" as="geometry" />
        </mxCell>
        <mxCell id="Ri-WkUoFcTNMRgU-D6om-22" value="" style="ellipse;whiteSpace=wrap;html=1;fillColor=#fff2cc;strokeColor=#d6b656;" parent="1" vertex="1">
          <mxGeometry x="420" y="480" width="230" height="80" as="geometry" />
        </mxCell>
        <mxCell id="Ri-WkUoFcTNMRgU-D6om-23" value="UC_4&lt;br&gt;Create appointment" style="text;html=1;strokeColor=none;fillColor=none;align=center;verticalAlign=middle;whiteSpace=wrap;rounded=0;" parent="1" vertex="1">
          <mxGeometry x="475" y="140" width="140" height="20" as="geometry" />
        </mxCell>
        <mxCell id="Ri-WkUoFcTNMRgU-D6om-24" value="UC_05-06-07-09&lt;br&gt;Appointment modifications" style="text;html=1;strokeColor=none;fillColor=none;align=center;verticalAlign=middle;whiteSpace=wrap;rounded=0;" parent="1" vertex="1">
          <mxGeometry x="510" y="230" width="100" height="20" as="geometry" />
        </mxCell>
        <mxCell id="Ri-WkUoFcTNMRgU-D6om-25" value="UC_01_02_03&amp;nbsp;&lt;br&gt;Login/Settings/LogOut" style="text;html=1;strokeColor=none;fillColor=none;align=center;verticalAlign=middle;whiteSpace=wrap;rounded=0;" parent="1" vertex="1">
          <mxGeometry x="450" y="60" width="40" height="20" as="geometry" />
        </mxCell>
        <mxCell id="Ri-WkUoFcTNMRgU-D6om-26" value="UC_14&lt;br&gt;change employee shift" style="text;html=1;strokeColor=none;fillColor=none;align=center;verticalAlign=middle;whiteSpace=wrap;rounded=0;" parent="1" vertex="1">
          <mxGeometry x="515" y="315" width="110" height="20" as="geometry" />
        </mxCell>
        <mxCell id="Ri-WkUoFcTNMRgU-D6om-27" value="UC_16&lt;br&gt;Dis/approve employee requests" style="text;html=1;strokeColor=none;fillColor=none;align=center;verticalAlign=middle;whiteSpace=wrap;rounded=0;" parent="1" vertex="1">
          <mxGeometry x="510" y="405" width="120" height="20" as="geometry" />
        </mxCell>
        <mxCell id="Ri-WkUoFcTNMRgU-D6om-28" value="UC_31-32-33-34&lt;br&gt;Bills" style="text;html=1;strokeColor=none;fillColor=none;align=center;verticalAlign=middle;whiteSpace=wrap;rounded=0;" parent="1" vertex="1">
          <mxGeometry x="460" y="510" width="130" height="20" as="geometry" />
        </mxCell>
        <mxCell id="Ri-WkUoFcTNMRgU-D6om-31" value="UC_35-36&lt;br&gt;Loyal clients" style="text;html=1;strokeColor=none;fillColor=none;align=center;verticalAlign=middle;whiteSpace=wrap;rounded=0;" parent="1" vertex="1">
          <mxGeometry x="385" y="600" width="100" height="20" as="geometry" />
        </mxCell>
        <mxCell id="Ri-WkUoFcTNMRgU-D6om-34" value="" style="verticalLabelPosition=bottom;verticalAlign=top;html=1;shape=mxgraph.basic.rect;fillColor2=none;strokeWidth=1;size=20;indent=5;fillColor=none;" parent="1" vertex="1">
          <mxGeometry x="300" y="10" width="490" height="685" as="geometry" />
        </mxCell>
      </root>
    </mxGraphModel>
  </diagram>
</mxfile>
